<?xml version="1.0" encoding="utf-8"?>
<!-- Generator: Adobe Illustrator 15.0.0, SVG Export Plug-In . SVG Version: 6.00 Build 0)  -->
<!DOCTYPE svg PUBLIC "-//W3C//DTD SVG 1.1//EN" "http://www.w3.org/Graphics/SVG/1.1/DTD/svg11.dtd">
<svg version="1.1" id="Capa_1" xmlns="http://www.w3.org/2000/svg" xmlns:xlink="http://www.w3.org/1999/xlink" x="0px" y="0px"
	 width="360px" height="360px" viewBox="0 0 360 360" enable-background="new 0 0 360 360" xml:space="preserve">
<polyline fill="#F7F1DA" stroke="#142A3B" stroke-miterlimit="10" points="94.779,253.89 333.764,342.187 264.376,93.385 "/>
<g>
	<g id="group-12svg">
		<circle fill="#142A3B" cx="150.237" cy="143.812" r="126"/>
		<g>
			<path id="path-3_23_" fill="#FBB713" d="M243.584,176.461H57.669c-3.332,0-6.035-2.703-6.035-6.035l0,0
				c0-3.334,2.703-6.035,6.035-6.035h185.915c3.332,0,6.035,2.701,6.035,6.035l0,0C249.619,173.76,246.916,176.461,243.584,176.461z
				"/>
			<path id="path-4_23_" fill="#FBB713" d="M234.479,164.391c-2.771-43.909-39.242-78.669-83.852-78.669
				s-81.081,34.76-83.852,78.669H234.479z"/>
			<path id="path-5_23_" fill="#EDEDED" d="M83.172,141.76c-0.536,0-1.08-0.113-1.594-0.357c-1.867-0.886-2.661-3.111-1.776-4.975
				c7.106-15,19.297-27.175,34.319-34.286c1.867-0.885,4.095-0.084,4.974,1.778c0.882,1.862,0.083,4.089-1.78,4.971
				c-13.47,6.375-24.394,17.291-30.767,30.736C85.911,140.973,84.572,141.76,83.172,141.76z"/>
			<path id="path-6_23_" opacity="0.25" fill="#090908" enable-background="new    " d="M176.907,89.995
				c20.438,14.224,33.776,31.737,35.439,58.11l-144.788,9.021c-0.69,3.535-0.551,3.586-0.784,7.264h167.704
				C232.278,129.528,208.802,100.505,176.907,89.995z"/>
			<path id="path-7_22_" opacity="0.25" fill="#090908" enable-background="new    " d="M142.444,127.481
				c3.63,0,6.573-2.942,6.573-6.574v-34.8c0-0.105-0.025-0.204-0.03-0.308c-4.468,0.086-8.847,0.517-13.116,1.274v33.833
				C135.87,124.539,138.812,127.481,142.444,127.481z"/>
			<path id="path-8_16_" opacity="0.25" fill="#090908" enable-background="new    " d="M174.841,127.481
				c3.63,0,6.573-2.942,6.573-6.574V91.576c-4.224-1.665-8.62-2.976-13.147-3.944v33.275
				C168.267,124.539,171.21,127.481,174.841,127.481z"/>
			<path id="path-9_15_" fill="#FBB713" d="M167.641,127.481L167.641,127.481c-3.63,0-6.573-2.942-6.573-6.574V86.108
				c0-3.632,2.943-6.574,6.573-6.574l0,0c3.631,0,6.574,2.942,6.574,6.574v34.799C174.215,124.539,171.271,127.481,167.641,127.481z
				"/>
			<path id="path-10_13_" fill="#FBB713" d="M133.612,127.481L133.612,127.481c-3.63,0-6.573-2.942-6.573-6.574V86.108
				c0-3.632,2.943-6.574,6.573-6.574l0,0c3.631,0,6.574,2.942,6.574,6.574v34.799C140.187,124.539,137.244,127.481,133.612,127.481z
				"/>
			<path id="path-11_11_" opacity="0.25" fill="#090908" enable-background="new    " d="M57.669,176.463h185.914
				c3.333,0,6.036-2.703,6.036-6.037H51.634C51.634,173.76,54.337,176.463,57.669,176.463z"/>
		</g>
	</g>
</g>
</svg>
