<?xml version="1.0" encoding="utf-8"?>
<!-- Generator: Adobe Illustrator 15.0.0, SVG Export Plug-In . SVG Version: 6.00 Build 0)  -->
<!DOCTYPE svg PUBLIC "-//W3C//DTD SVG 1.1//EN" "http://www.w3.org/Graphics/SVG/1.1/DTD/svg11.dtd">
<svg version="1.1" id="Capa_1" xmlns="http://www.w3.org/2000/svg" xmlns:xlink="http://www.w3.org/1999/xlink" x="0px" y="0px"
	 width="947px" height="512px" viewBox="30.5 0 947 512" enable-background="new 30.5 0 947 512" xml:space="preserve">
<g>
	<g>
		<path fill="#231F20" d="M401.891,348.46c-48.322-18.585-62.264-24.154-66.907-25.088c-0.934,0-2.783,0-3.719,0.934l-43.677,29.728
			c-0.925,0.935-1.85,1.859-1.85,3.719c0,0.926,0,2.785,0.925,3.72l22.304,22.3l-25.088,25.087c-1.863,1.863-1.863,4.648,0,6.508
			l22.294,28.803l-30.66,61.333c-0.926,1.854-0.926,2.787,0,4.648c0.935,0.924,2.784,1.85,3.72,1.85h185.844
			c2.788,0,4.649-1.85,4.649-4.645C471.581,485.981,478.08,378.195,401.891,348.46z"/>
		<path fill="#231F20" d="M205.822,443.243l22.302-28.812c1.859-1.85,0.93-4.648,0-6.499l-25.09-25.088l22.304-22.309
			c0.926-0.924,1.857-2.785,0.926-3.709c0-0.934-0.926-2.793-1.855-3.719l-43.675-29.736c-0.93-0.931-2.786-0.931-3.717-0.931
			c-3.717,0.931-17.652,6.508-66.903,25.093c-76.196,30.662-69.695,138.448-67.833,159.822c0,2.793,1.86,4.645,4.644,4.645H232.77
			l0,0c1.859,0,2.785-0.926,3.716-1.85c0.931-0.935,0.931-2.794,0-4.648L205.822,443.243z"/>
		<path fill="#333366" d="M287.586,442.308l-25.082-31.587l24.158-24.167c0.924-0.926,0.924-1.851,0.924-3.711
			c0-1.862-0.924-2.787-0.924-3.724l-26.949-26.942c-1.854-1.86-4.646-1.86-6.5,0l-26.952,26.942c-1.854,1.859-1.854,4.649,0,6.508
			l24.161,24.154l-25.085,31.6c-0.929,0.925-0.929,2.785-0.929,4.646l27.876,61.328c0.931,1.859,2.785,2.793,4.646,2.793
			c1.854,0,3.715-0.934,4.646-2.793l27.871-61.328C289.447,446.028,289.447,444.169,287.586,442.308z"/>
		<path fill="#231F20" d="M352.635,166.331c-24.159-13.008-60.398-20.439-96.634-20.439c-36.24,0-72.479,7.431-96.638,20.439
			c-0.933,0.931-1.862,1.86-1.862,2.789c0,0.928,0,2.786,0.931,3.717c20.446,31.594,75.269,32.523,86.416,32.523l0,0h24.154
			c11.153,0,65.981-1.862,86.428-32.523c0.924-0.929,0.924-2.789,0.924-3.717C354.494,168.191,353.568,166.331,352.635,166.331z"/>
		<path fill="#231F20" d="M256,309.431L256,309.431L256,309.431c62.258-0.925,112.43-51.106,112.43-113.361c0-1.86,0-4.646,0-7.436
			c0-1.857-0.925-3.717-2.785-3.717c-1.858-0.933-3.72,0-4.644,0.931c-26.953,26.945-76.2,29.736-91.065,29.736h-25.09
			c-14.865,0-64.116-1.859-91.063-29.736c-0.931-0.931-2.785-1.862-4.644-0.931c-1.862,0.931-2.787,1.86-2.787,3.717
			c0,2.789,0,4.644,0,7.436C143.561,258.324,193.74,308.505,256,309.431z"/>
		<path fill="#231F20" d="M135.201,128.232c1.86,0.931,3.714,1.86,5.577,0.931c16.723-9.293,68.76-25.085,114.291-25.085
			c46.455,0,98.5,15.793,115.227,25.085c0.925,0,1.858,0.929,1.858,0.929c0.926,0,1.859,0,2.785-0.929
			c11.152-10.222,19.509-17.653,22.304-20.441c1.854-1.859,1.854-4.646,0.926-6.505c-0.926-0.932-1.859-1.862-2.785-3.717
			c-4.645-4.646-11.152-12.084-13.937-24.161l-1.863-6.508c-1.859-16.723-2.785-23.228-19.511-25.085h-4.643
			c-17.661-1.859-45.538-4.646-67.842-24.161C269.002,1.862,261.576,0,256,0c-5.579,0-13.01,1.862-31.593,18.585
			C202.105,38.1,174.23,40.886,156.571,42.746h-4.647c-16.723,1.857-18.585,8.363-21.369,24.161l-1.862,6.503
			c-2.785,12.082-9.293,18.585-13.938,24.161c-0.926,0.929-1.855,2.784-2.785,3.714c-1.86,1.862-0.931,4.646,0.93,6.508
			C116.616,110.577,124.047,118.015,135.201,128.232z"/>
		<path fill="#333366" d="M363.786,155.182c0.934-0.929,1.858-1.859,2.784-3.719l1.859-9.293c0-1.857-0.925-4.646-2.785-4.646
			c-13.011-5.571-59.474-22.302-108.715-22.302c-50.18,0-95.714,16.73-108.724,22.302c-1.855,0.929-2.785,2.789-2.785,4.646
			l1.854,9.293c0,1.859,0.929,2.789,2.791,3.719c0.929,0,0.929,0.927,1.854,0.927c0.931,0,1.86,0,1.86-0.927
			c26.947-13.011,63.188-20.444,104.076-20.444c39.955,0,77.124,7.433,104.067,20.444
			C361.002,155.182,362.861,155.182,363.786,155.182z"/>
		<circle fill="#FF0000" cx="521.5" cy="246.98" r="11"/>
		<circle fill="#FF0000" cx="582.5" cy="246.98" r="11"/>
		<circle fill="#FF0000" cx="645.5" cy="246.98" r="11"/>
		<circle fill="#FF0000" cx="706.5" cy="246.98" r="11"/>
		<circle fill="#FF0000" cx="764.5" cy="246.98" r="11"/>
		<circle fill="#FF0000" cx="825.5" cy="246.98" r="11"/>
		<circle fill="#FF0000" cx="888.5" cy="246.98" r="11"/>
		<circle fill="#FF0000" cx="949.5" cy="246.98" r="11"/>
	</g>
</g>
</svg>
