<?xml version="1.0" encoding="UTF-8" standalone="no"?>
<!DOCTYPE svg PUBLIC "-//W3C//DTD SVG 1.1//EN"
 "http://www.w3.org/Graphics/SVG/1.1/DTD/svg11.dtd">
<!-- Generated by graphviz version 2.38.0 (20140413.2041)
 -->
<!-- Title: dependencies Pages: 1 -->
<svg width="3165pt" height="284pt"
 viewBox="0.00 0.00 3165.00 284.00" xmlns="http://www.w3.org/2000/svg" xmlns:xlink="http://www.w3.org/1999/xlink">
<g id="graph0" class="graph" transform="scale(1 1) rotate(0) translate(4 280)">
<title>dependencies</title>
<polygon fill="white" stroke="none" points="-4,4 -4,-280 3161,-280 3161,4 -4,4"/>
<text text-anchor="start" x="1557.51" y="-42.4" font-family="sans-serif" font-weight="bold" font-size="14.00">Legend</text>
<polygon fill="#ffffb3" stroke="none" points="1344.5,-10 1344.5,-30 1364.5,-30 1364.5,-10 1344.5,-10"/>
<text text-anchor="start" x="1368.13" y="-15.4" font-family="sans-serif" font-size="14.00"> &#160;Declarations</text>
<polygon fill="#8dd3c7" stroke="none" points="1457.5,-10 1457.5,-30 1477.5,-30 1477.5,-10 1457.5,-10"/>
<text text-anchor="start" x="1481.23" y="-15.4" font-family="sans-serif" font-size="14.00"> &#160;Module</text>
<polygon fill="#80b1d3" stroke="none" points="1543.5,-10 1543.5,-30 1563.5,-30 1563.5,-10 1543.5,-10"/>
<text text-anchor="start" x="1567.28" y="-15.4" font-family="sans-serif" font-size="14.00"> &#160;Bootstrap</text>
<polygon fill="#fdb462" stroke="none" points="1640.5,-10 1640.5,-30 1660.5,-30 1660.5,-10 1640.5,-10"/>
<text text-anchor="start" x="1664.17" y="-15.4" font-family="sans-serif" font-size="14.00"> &#160;Providers</text>
<polygon fill="#fb8072" stroke="none" points="1736.5,-10 1736.5,-30 1756.5,-30 1756.5,-10 1736.5,-10"/>
<text text-anchor="start" x="1760.23" y="-15.4" font-family="sans-serif" font-size="14.00"> &#160;Exports</text>
<g id="clust1" class="cluster"><title>cluster_AppModule</title>
<polygon fill="none" stroke="black" stroke-dasharray="1,5" points="8,-70 8,-268 3149,-268 3149,-70 8,-70"/>
</g>
<g id="clust2" class="cluster"><title>cluster_AppModule_declarations</title>
<polygon fill="none" stroke="black" points="1715,-78 1715,-130 3141,-130 3141,-78 1715,-78"/>
</g>
<g id="clust13" class="cluster"><title>cluster_AppModule_imports</title>
<polygon fill="none" stroke="black" points="1227,-78 1227,-130 1707,-130 1707,-78 1227,-78"/>
</g>
<g id="clust15" class="cluster"><title>cluster_AppModule_bootstrap</title>
<polygon fill="none" stroke="black" points="1647,-208 1647,-260 1771,-260 1771,-208 1647,-208"/>
</g>
<g id="clust16" class="cluster"><title>cluster_AppModule_providers</title>
<polygon fill="none" stroke="black" points="16,-78 16,-130 1219,-130 1219,-78 16,-78"/>
</g>
<!-- AppComponent -->
<g id="node1" class="node"><title>AppComponent</title>
<polygon fill="#ffffb3" stroke="black" points="3132.94,-122 3027.06,-122 3027.06,-86 3132.94,-86 3132.94,-122"/>
<text text-anchor="middle" x="3080" y="-99.8" font-family="Times,serif" font-size="14.00">AppComponent</text>
</g>
<!-- AppModule -->
<g id="node11" class="node"><title>AppModule</title>
<polygon fill="#8dd3c7" stroke="black" points="1750.66,-187 1747.66,-191 1726.66,-191 1723.66,-187 1667.34,-187 1667.34,-151 1750.66,-151 1750.66,-187"/>
<text text-anchor="middle" x="1709" y="-164.8" font-family="Times,serif" font-size="14.00">AppModule</text>
</g>
<!-- AppComponent&#45;&gt;AppModule -->
<g id="edge1" class="edge"><title>AppComponent&#45;&gt;AppModule</title>
<path fill="none" stroke="black" d="M3080,-122.153C3080,-145.757 3080,-184 3080,-184 3080,-184 1760.78,-184 1760.78,-184"/>
<polygon fill="black" stroke="black" points="1760.78,-180.5 1750.78,-184 1760.78,-187.5 1760.78,-180.5"/>
</g>
<!-- FilebuttonComponent -->
<g id="node2" class="node"><title>FilebuttonComponent</title>
<polygon fill="#ffffb3" stroke="black" points="3009.39,-122 2870.61,-122 2870.61,-86 3009.39,-86 3009.39,-122"/>
<text text-anchor="middle" x="2940" y="-99.8" font-family="Times,serif" font-size="14.00">FilebuttonComponent</text>
</g>
<!-- FilebuttonComponent&#45;&gt;AppModule -->
<g id="edge2" class="edge"><title>FilebuttonComponent&#45;&gt;AppModule</title>
<path fill="none" stroke="black" d="M2940,-122.248C2940,-145.018 2940,-181 2940,-181 2940,-181 1760.66,-181 1760.66,-181"/>
<polygon fill="black" stroke="black" points="1760.66,-177.5 1750.66,-181 1760.66,-184.5 1760.66,-177.5"/>
</g>
<!-- FileuploadComponent -->
<g id="node3" class="node"><title>FileuploadComponent</title>
<polygon fill="#ffffb3" stroke="black" points="2852.72,-122 2711.28,-122 2711.28,-86 2852.72,-86 2852.72,-122"/>
<text text-anchor="middle" x="2782" y="-99.8" font-family="Times,serif" font-size="14.00">FileuploadComponent</text>
</g>
<!-- FileuploadComponent&#45;&gt;AppModule -->
<g id="edge3" class="edge"><title>FileuploadComponent&#45;&gt;AppModule</title>
<path fill="none" stroke="black" d="M2782,-122.292C2782,-144.206 2782,-178 2782,-178 2782,-178 1760.73,-178 1760.73,-178"/>
<polygon fill="black" stroke="black" points="1760.73,-174.5 1750.73,-178 1760.73,-181.5 1760.73,-174.5"/>
</g>
<!-- LayerComponent -->
<g id="node4" class="node"><title>LayerComponent</title>
<polygon fill="#ffffb3" stroke="black" points="2692.97,-122 2579.03,-122 2579.03,-86 2692.97,-86 2692.97,-122"/>
<text text-anchor="middle" x="2636" y="-99.8" font-family="Times,serif" font-size="14.00">LayerComponent</text>
</g>
<!-- LayerComponent&#45;&gt;AppModule -->
<g id="edge4" class="edge"><title>LayerComponent&#45;&gt;AppModule</title>
<path fill="none" stroke="black" d="M2636,-122.027C2636,-142.767 2636,-174 2636,-174 2636,-174 1760.94,-174 1760.94,-174"/>
<polygon fill="black" stroke="black" points="1760.94,-170.5 1750.94,-174 1760.94,-177.5 1760.94,-170.5"/>
</g>
<!-- LayerlistComponent -->
<g id="node5" class="node"><title>LayerlistComponent</title>
<polygon fill="#ffffb3" stroke="black" points="2560.59,-122 2429.41,-122 2429.41,-86 2560.59,-86 2560.59,-122"/>
<text text-anchor="middle" x="2495" y="-99.8" font-family="Times,serif" font-size="14.00">LayerlistComponent</text>
</g>
<!-- LayerlistComponent&#45;&gt;AppModule -->
<g id="edge5" class="edge"><title>LayerlistComponent&#45;&gt;AppModule</title>
<path fill="none" stroke="black" d="M2495,-122.308C2495,-142.146 2495,-171 2495,-171 2495,-171 1760.7,-171 1760.7,-171"/>
<polygon fill="black" stroke="black" points="1760.7,-167.5 1750.7,-171 1760.7,-174.5 1760.7,-167.5"/>
</g>
<!-- MapComponent -->
<g id="node6" class="node"><title>MapComponent</title>
<polygon fill="#ffffb3" stroke="black" points="2411.49,-122 2304.51,-122 2304.51,-86 2411.49,-86 2411.49,-122"/>
<text text-anchor="middle" x="2358" y="-99.8" font-family="Times,serif" font-size="14.00">MapComponent</text>
</g>
<!-- MapComponent&#45;&gt;AppModule -->
<g id="edge6" class="edge"><title>MapComponent&#45;&gt;AppModule</title>
<path fill="none" stroke="black" d="M2358,-122.169C2358,-141.09 2358,-168 2358,-168 2358,-168 1761.08,-168 1761.08,-168"/>
<polygon fill="black" stroke="black" points="1761.08,-164.5 1751.08,-168 1761.08,-171.5 1761.08,-164.5"/>
</g>
<!-- IconselectorComponent -->
<g id="node7" class="node"><title>IconselectorComponent</title>
<polygon fill="#ffffb3" stroke="black" points="2286.74,-122 2137.26,-122 2137.26,-86 2286.74,-86 2286.74,-122"/>
<text text-anchor="middle" x="2212" y="-99.8" font-family="Times,serif" font-size="14.00">IconselectorComponent</text>
</g>
<!-- IconselectorComponent&#45;&gt;AppModule -->
<g id="edge7" class="edge"><title>IconselectorComponent&#45;&gt;AppModule</title>
<path fill="none" stroke="black" d="M2212,-122.302C2212,-140.27 2212,-165 2212,-165 2212,-165 1761.02,-165 1761.02,-165"/>
<polygon fill="black" stroke="black" points="1761.02,-161.5 1751.02,-165 1761.02,-168.5 1761.02,-161.5"/>
</g>
<!-- MarkerComponent -->
<g id="node8" class="node"><title>MarkerComponent</title>
<polygon fill="#ffffb3" stroke="black" points="2119.03,-122 1996.97,-122 1996.97,-86 2119.03,-86 2119.03,-122"/>
<text text-anchor="middle" x="2058" y="-99.8" font-family="Times,serif" font-size="14.00">MarkerComponent</text>
</g>
<!-- MarkerComponent&#45;&gt;AppModule -->
<g id="edge8" class="edge"><title>MarkerComponent&#45;&gt;AppModule</title>
<path fill="none" stroke="black" d="M2078.42,-122.035C2078.42,-138.734 2078.42,-161 2078.42,-161 2078.42,-161 1760.66,-161 1760.66,-161"/>
<polygon fill="black" stroke="black" points="1760.66,-157.5 1750.66,-161 1760.66,-164.5 1760.66,-157.5"/>
</g>
<!-- MarkerComponent&#45;&gt;AppModule -->
<g id="edge11" class="edge"><title>MarkerComponent&#45;&gt;AppModule</title>
<path fill="none" stroke="black" d="M2037.58,-122.282C2037.58,-137.948 2037.58,-158 2037.58,-158 2037.58,-158 1760.95,-158 1760.95,-158"/>
<polygon fill="black" stroke="black" points="1760.95,-154.5 1750.95,-158 1760.95,-161.5 1760.95,-154.5"/>
</g>
<!-- NavigatorComponent -->
<g id="node9" class="node"><title>NavigatorComponent</title>
<polygon fill="#ffffb3" stroke="black" points="1978.81,-122 1841.19,-122 1841.19,-86 1978.81,-86 1978.81,-122"/>
<text text-anchor="middle" x="1910" y="-99.8" font-family="Times,serif" font-size="14.00">NavigatorComponent</text>
</g>
<!-- NavigatorComponent&#45;&gt;AppModule -->
<g id="edge9" class="edge"><title>NavigatorComponent&#45;&gt;AppModule</title>
<path fill="none" stroke="black" d="M1910,-122.124C1910,-136.783 1910,-155 1910,-155 1910,-155 1761.14,-155 1761.14,-155"/>
<polygon fill="black" stroke="black" points="1761.14,-151.5 1751.14,-155 1761.14,-158.5 1761.14,-151.5"/>
</g>
<!-- LayerDirective -->
<g id="node10" class="node"><title>LayerDirective</title>
<polygon fill="#ffffb3" stroke="black" points="1823.23,-122 1722.77,-122 1722.77,-86 1823.23,-86 1823.23,-122"/>
<text text-anchor="middle" x="1773" y="-99.8" font-family="Times,serif" font-size="14.00">LayerDirective</text>
</g>
<!-- LayerDirective&#45;&gt;AppModule -->
<g id="edge10" class="edge"><title>LayerDirective&#45;&gt;AppModule</title>
<path fill="none" stroke="black" d="M1736.73,-122.106C1736.73,-122.106 1736.73,-140.991 1736.73,-140.991"/>
<polygon fill="black" stroke="black" points="1733.23,-140.991 1736.73,-150.991 1740.23,-140.991 1733.23,-140.991"/>
</g>
<!-- AppComponent  -->
<g id="node16" class="node"><title>AppComponent </title>
<polygon fill="#80b1d3" stroke="black" points="1763.44,-252 1654.56,-252 1654.56,-216 1763.44,-216 1763.44,-252"/>
<text text-anchor="middle" x="1709" y="-229.8" font-family="Times,serif" font-size="14.00">AppComponent </text>
</g>
<!-- AppModule&#45;&gt;AppComponent  -->
<g id="edge16" class="edge"><title>AppModule&#45;&gt;AppComponent </title>
<path fill="none" stroke="black" stroke-dasharray="1,5" d="M1709,-187.106C1709,-187.106 1709,-205.991 1709,-205.991"/>
<polygon fill="black" stroke="black" points="1705.5,-205.991 1709,-215.991 1712.5,-205.991 1705.5,-205.991"/>
</g>
<!-- BrowserModule -->
<g id="node12" class="node"><title>BrowserModule</title>
<polygon fill="#8dd3c7" stroke="black" points="1699.47,-122 1696.47,-126 1675.47,-126 1672.47,-122 1592.53,-122 1592.53,-86 1699.47,-86 1699.47,-122"/>
<text text-anchor="middle" x="1646" y="-99.8" font-family="Times,serif" font-size="14.00">BrowserModule</text>
</g>
<!-- BrowserModule&#45;&gt;AppModule -->
<g id="edge12" class="edge"><title>BrowserModule&#45;&gt;AppModule</title>
<path fill="none" stroke="black" d="M1683.33,-122.106C1683.33,-122.106 1683.33,-140.991 1683.33,-140.991"/>
<polygon fill="black" stroke="black" points="1679.83,-140.991 1683.33,-150.991 1686.83,-140.991 1679.83,-140.991"/>
</g>
<!-- FormsModule -->
<g id="node13" class="node"><title>FormsModule</title>
<polygon fill="#8dd3c7" stroke="black" points="1574.83,-122 1571.83,-126 1550.83,-126 1547.83,-122 1479.17,-122 1479.17,-86 1574.83,-86 1574.83,-122"/>
<text text-anchor="middle" x="1527" y="-99.8" font-family="Times,serif" font-size="14.00">FormsModule</text>
</g>
<!-- FormsModule&#45;&gt;AppModule -->
<g id="edge13" class="edge"><title>FormsModule&#45;&gt;AppModule</title>
<path fill="none" stroke="black" d="M1527,-122.124C1527,-136.783 1527,-155 1527,-155 1527,-155 1657.25,-155 1657.25,-155"/>
<polygon fill="black" stroke="black" points="1657.25,-158.5 1667.25,-155 1657.25,-151.5 1657.25,-158.5"/>
</g>
<!-- HttpModule -->
<g id="node14" class="node"><title>HttpModule</title>
<polygon fill="#8dd3c7" stroke="black" points="1461.44,-122 1458.44,-126 1437.44,-126 1434.44,-122 1376.56,-122 1376.56,-86 1461.44,-86 1461.44,-122"/>
<text text-anchor="middle" x="1419" y="-99.8" font-family="Times,serif" font-size="14.00">HttpModule</text>
</g>
<!-- HttpModule&#45;&gt;AppModule -->
<g id="edge14" class="edge"><title>HttpModule&#45;&gt;AppModule</title>
<path fill="none" stroke="black" d="M1419,-122.282C1419,-137.948 1419,-158 1419,-158 1419,-158 1657.14,-158 1657.14,-158"/>
<polygon fill="black" stroke="black" points="1657.14,-161.5 1667.14,-158 1657.14,-154.5 1657.14,-161.5"/>
</g>
<!-- MaterializeModule -->
<g id="node15" class="node"><title>MaterializeModule</title>
<polygon fill="#8dd3c7" stroke="black" points="1358.79,-122 1355.79,-126 1334.79,-126 1331.79,-122 1235.21,-122 1235.21,-86 1358.79,-86 1358.79,-122"/>
<text text-anchor="middle" x="1297" y="-99.8" font-family="Times,serif" font-size="14.00">MaterializeModule</text>
</g>
<!-- MaterializeModule&#45;&gt;AppModule -->
<g id="edge15" class="edge"><title>MaterializeModule&#45;&gt;AppModule</title>
<path fill="none" stroke="black" d="M1297,-122.035C1297,-138.734 1297,-161 1297,-161 1297,-161 1657.23,-161 1657.23,-161"/>
<polygon fill="black" stroke="black" points="1657.23,-164.5 1667.23,-161 1657.23,-157.5 1657.23,-164.5"/>
</g>
<!-- CriticalinfrastructurelayerService -->
<g id="node17" class="node"><title>CriticalinfrastructurelayerService</title>
<ellipse fill="#fdb462" stroke="black" cx="1071" cy="-104" rx="140.034" ry="18"/>
<text text-anchor="middle" x="1071" y="-99.8" font-family="Times,serif" font-size="14.00">CriticalinfrastructurelayerService</text>
</g>
<!-- CriticalinfrastructurelayerService&#45;&gt;AppModule -->
<g id="edge17" class="edge"><title>CriticalinfrastructurelayerService&#45;&gt;AppModule</title>
<path fill="none" stroke="black" d="M1071,-122.302C1071,-140.27 1071,-165 1071,-165 1071,-165 1657.14,-165 1657.14,-165"/>
<polygon fill="black" stroke="black" points="1657.14,-168.5 1667.14,-165 1657.14,-161.5 1657.14,-168.5"/>
</g>
<!-- DataService -->
<g id="node18" class="node"><title>DataService</title>
<ellipse fill="#fdb462" stroke="black" cx="855" cy="-104" rx="58.4415" ry="18"/>
<text text-anchor="middle" x="855" y="-99.8" font-family="Times,serif" font-size="14.00">DataService</text>
</g>
<!-- DataService&#45;&gt;AppModule -->
<g id="edge18" class="edge"><title>DataService&#45;&gt;AppModule</title>
<path fill="none" stroke="black" d="M855,-122.169C855,-141.09 855,-168 855,-168 855,-168 1657.23,-168 1657.23,-168"/>
<polygon fill="black" stroke="black" points="1657.23,-171.5 1667.23,-168 1657.23,-164.5 1657.23,-171.5"/>
</g>
<!-- FileparserService -->
<g id="node19" class="node"><title>FileparserService</title>
<ellipse fill="#fdb462" stroke="black" cx="700" cy="-104" rx="78.7028" ry="18"/>
<text text-anchor="middle" x="700" y="-99.8" font-family="Times,serif" font-size="14.00">FileparserService</text>
</g>
<!-- FileparserService&#45;&gt;AppModule -->
<g id="edge19" class="edge"><title>FileparserService&#45;&gt;AppModule</title>
<path fill="none" stroke="black" d="M700,-122.308C700,-142.146 700,-171 700,-171 700,-171 1657.25,-171 1657.25,-171"/>
<polygon fill="black" stroke="black" points="1657.25,-174.5 1667.25,-171 1657.25,-167.5 1657.25,-174.5"/>
</g>
<!-- GeocodingService -->
<g id="node20" class="node"><title>GeocodingService</title>
<ellipse fill="#fdb462" stroke="black" cx="521" cy="-104" rx="82.2256" ry="18"/>
<text text-anchor="middle" x="521" y="-99.8" font-family="Times,serif" font-size="14.00">GeocodingService</text>
</g>
<!-- GeocodingService&#45;&gt;AppModule -->
<g id="edge20" class="edge"><title>GeocodingService&#45;&gt;AppModule</title>
<path fill="none" stroke="black" d="M521,-122.027C521,-142.767 521,-174 521,-174 521,-174 1657.07,-174 1657.07,-174"/>
<polygon fill="black" stroke="black" points="1657.07,-177.5 1667.07,-174 1657.07,-170.5 1657.07,-177.5"/>
</g>
<!-- MapService -->
<g id="node21" class="node"><title>MapService</title>
<ellipse fill="#fdb462" stroke="black" cx="363" cy="-104" rx="57.8829" ry="18"/>
<text text-anchor="middle" x="363" y="-99.8" font-family="Times,serif" font-size="14.00">MapService</text>
</g>
<!-- MapService&#45;&gt;AppModule -->
<g id="edge21" class="edge"><title>MapService&#45;&gt;AppModule</title>
<path fill="none" stroke="black" d="M363,-122.292C363,-144.206 363,-178 363,-178 363,-178 1657.24,-178 1657.24,-178"/>
<polygon fill="black" stroke="black" points="1657.24,-181.5 1667.24,-178 1657.24,-174.5 1657.24,-181.5"/>
</g>
<!-- Neo4jService -->
<g id="node22" class="node"><title>Neo4jService</title>
<ellipse fill="#fdb462" stroke="black" cx="224" cy="-104" rx="63.6813" ry="18"/>
<text text-anchor="middle" x="224" y="-99.8" font-family="Times,serif" font-size="14.00">Neo4jService</text>
</g>
<!-- Neo4jService&#45;&gt;AppModule -->
<g id="edge22" class="edge"><title>Neo4jService&#45;&gt;AppModule</title>
<path fill="none" stroke="black" d="M224,-122.248C224,-145.018 224,-181 224,-181 224,-181 1657.34,-181 1657.34,-181"/>
<polygon fill="black" stroke="black" points="1657.34,-184.5 1667.34,-181 1657.34,-177.5 1657.34,-184.5"/>
</g>
<!-- OgreService -->
<g id="node23" class="node"><title>OgreService</title>
<ellipse fill="#fdb462" stroke="black" cx="83" cy="-104" rx="59.0872" ry="18"/>
<text text-anchor="middle" x="83" y="-99.8" font-family="Times,serif" font-size="14.00">OgreService</text>
</g>
<!-- OgreService&#45;&gt;AppModule -->
<g id="edge23" class="edge"><title>OgreService&#45;&gt;AppModule</title>
<path fill="none" stroke="black" d="M83,-122.153C83,-145.757 83,-184 83,-184 83,-184 1657.17,-184 1657.17,-184"/>
<polygon fill="black" stroke="black" points="1657.17,-187.5 1667.17,-184 1657.17,-180.5 1657.17,-187.5"/>
</g>
</g>
</svg>
